<?xml version="1.0" encoding="UTF-8"?>
<svg xmlns="http://www.w3.org/2000/svg" viewBox="0 0 558.75 371.76">
  <defs>
    <style>
      .cls-1, .cls-2, .cls-3 {
        fill: none;
      }

      .cls-4 {
        fill: #e6e6e6;
      }

      .cls-5 {
        fill: #662d91;
      }

      .cls-6 {
        fill: gray;
      }

      .cls-7 {
        fill: #2e3192;
      }

      .cls-8 {
        fill: #7480ff;
      }

      .cls-2 {
        stroke-miterlimit: 10;
      }

      .cls-2, .cls-3 {
        stroke: #000;
      }

      .cls-9, .cls-10 {
        opacity: .45;
      }

      .cls-11 {
        opacity: .75;
      }

      .cls-11, .cls-10 {
        fill: #fff;
      }

      .cls-3 {
        stroke-linecap: round;
        stroke-linejoin: round;
        stroke-width: 3px;
      }
    </style>
  </defs>
  <g id="Fill-In">
    <path class="cls-6" d="m221.5,307.47s-1.38,17.35,28.25,4.07c0,0,21.83-2.14,22.73-.71,0,0,54.27-20.29,70.27-18.29,0,0,13,3,16,7,0,0,83,76.92,148,18.46,0,0-18.58-13.46-23.79-22.46-7.8-8.82-33.68-35.83-77.08-43.78-52.24-9.57-85.71,11.47-94,17l-7.15.55-2.74-.49-3.32,2.15-6.35.62-3.36,1.44-7.15,4-7.64.22-7.42-3.19-1.75,5.19s-9.37,22.42-43.49,28.21c0,0,35.62-3.65,45.25-31.93"/>
    <ellipse cx="277.25" cy="263.15" rx="17" ry="15.11"/>
    <path class="cls-8" d="m266.75,275.54s-16,46-93,30c0,0-65-39-11-98l2-3s6-28,41-43c0,0,26-31,63-40,0,0,37-29,107-2,0,0,53-4,82,48,0,0,31,23,31,49,0,0,23,37,17,56,0,0,25,23.92,1,45.46,0,0,1-26.46-9-32.46,0,0-10-27-20-32,0,0-27-10-35-24,0,0-30,1-31-13,0,0-3,10-34,6,0,0-10,11-43,9,0,0-17,14.15-40.5,20.58,0,0-2.21,3.12-3.36,1.77-.75-.88-9.78-7.52-18.58-5.14-.41.11-9.87,2.84-11.56,11.79-1.05,5.54,1.28,11.36,6,15Z"/>
    <path class="cls-1" d="m164.75,204.54s63.15-21.09,127.57,49.46"/>
    <path class="cls-8" d="m334.75,231.54c-71-111-129-70-129-70"/>
    <path class="cls-8" d="m268.75,121.54s76-27,109,101"/>
    <path class="cls-8" d="m375.75,119.54s60,34,36,97"/>
    <path class="cls-1" d="m457.75,167.54s13,35-15,62"/>
    <path class="cls-1" d="m488.75,216.54s9,11-11,37"/>
    <path class="cls-1" d="m505.75,272.54s0,11-8,13"/>
    <path class="cls-7" d="m152.75,325.54c-1.41.04-34-7.08,0-7.54,0,0,17-2.46,21-12.46l7.71,1.43s5.29,17.57-28.71,18.57Z"/>
    <path class="cls-7" d="m249.75,311.54c.93-.37,50-7,6,12,0,0-31,11-45,4,0,0-7.44-6.52-3.72-17.26,0,0,14.22-2.88,14.47-2.81s-1.75,16.07,28.25,4.07Z"/>
    <path class="cls-6" d="m183.38,307.47s11.37,8.07,22.37,8.07l1.28-5.26s-25.02-1.88-23.65-2.81Z"/>
    <path class="cls-5" d="m290.6,271.51s7.15,1.03,13.15-3.97c1.72-1.43,16-16.09,19.5-13.54,0,0,18.5-11.46,27.5-9.46,0,0,33-8,36-3,0,0,27-5,29,2,0,0,20,0,22,9,0,0,21.38,0,27.19,15,0,0,13.83,1.84,19.32,14.42,0,0,16.49,12.58,2.49,13.58h-3.79s-58.6-79.73-170.91-27.87c0,0-10.21,4.13-6.76,0"/>
    <polyline class="cls-2" points="482.96 295.54 464.22 277.26 439.28 262 422.14 255.49 409.85 252.92 392.74 250.55 374.33 250.55 353.79 253.76 337.66 257.74 325.61 261.94 314.42 266.6"/>
    <path class="cls-4" d="m292.33,254.99l1.93-2.48s31.13-11.37,40.63-20.31c0,0,32.5,1.18,43-8.88,0,0,28.5,2.94,33.5-5.06,0,0,4.74,12.67,31.37,11.83,0,0,9.37,13.16,35,24.16,0,0,11.37,5.7,20,31.85,0,0,10.37,6.63,9,31.39,0,0-23.74-18.23-23.05-21.23,0,0,11.79.74,8.24-6.13,0,0-7.79-9.47-7.67-8.17,0,0-2.76-11.14-19.32-14.42,0,0-2.82-13.72-27.19-15,0,0-.63-8.72-22-9,0,0,.37-6.72-29-2,0,0,1.37-4.72-36,3,0,0-13.37-.28-27.37,9.72,0,0-1.26-4.45-19.63,13.28,0,0-7.14,5.37-12.25,4.05,0,0,6.77-7.87.83-16.59Z"/>
  </g>
  <g id="Lights">
    <path class="cls-10" d="m169.95,294.62s-31.69-17.26-18.13-54.81,33.56-30.55,33.56-30.55c0,0,40.86-1,41.43,10,0,0,12.2,11,8.88,16s-41.18,74.71-65.75,59.36Z"/>
    <path class="cls-10" d="m181.76,189.27s15.62-25.01,37.62-24.01,34,1.88,41,9.44-3.87,24.56-17.93,24.06-65.3.52-60.69-9.49Z"/>
    <path class="cls-10" d="m240.02,144.85s15.36-17.24,28.86-17.41,52.5,11.82,54.5,21.32,10.07,27.13-8.96,22.32-76.76-20.64-74.4-26.23Z"/>
    <path class="cls-10" d="m331.38,117.26s29-2.21,44.5,8.39,22.81,28.48,22.81,28.48c0,0,4.69,8.12,2.69,9.12s-78-28-70-46Z"/>
    <path class="cls-10" d="m417.42,136.67s23.96,10.59,27.96,23.59-4,20-4,20c0,0-19.62-8.95-19.81-16.97s-5.69-26.61-5.69-26.61h1.54Z"/>
    <path class="cls-10" d="m471.38,186.26s5,2.55,6.5,12.28,1.62,14.48,1.62,14.48c0,0-12.12-4.76-12.12-8.76s-8.77-14-1.39-18,5.39,0,5.39,0Z"/>
    <path class="cls-10" d="m274.18,300.15s30.21.15,20.21-11.37-36,5.48-36,9.48,12.59,1.79,15.79,1.89Z"/>
    <path class="cls-10" d="m215.44,325.76s22.66,3.5,26.3,0-23.36-4.5-23.36-4.5l-.81-5.72-7.11,1.96,4.98,8.26Z"/>
    <path class="cls-10" d="m167.1,277.26s-18.72-47,6.28-52,33,5,31,13-21.36,38-27.68,39-9.6,0-9.6,0Z"/>
  </g>
  <g id="Shadows">
    <path class="cls-9" d="m176.34,201.59l8.88-3.05s74.89,1.24,85.02,26.98l5.11,11.89s-43.06-42.5-99.02-35.82Z"/>
    <path class="cls-9" d="m164.88,324.23s-9.6-4.97-3.05-8.47,13.29-6.95,11.92-10.22,7.8-4.86,7.71,1.43-.08,14.23-16.58,17.26Z"/>
    <path class="cls-9" d="m183.51,307.69s19.46,9.57,21.16,8.07,2.36-5.48,2.36-5.48c0,0-23.39-2.16-23.52-2.59Z"/>
    <path class="cls-9" d="m221.63,307.69s28.6-7.62,34.67-5.03,24.27-1.27,16.17,8.16l-18.16.3-15.65,4.41s-15.78,2.59-17.04-7.85Z"/>
    <path class="cls-9" d="m373.95,311.5s-37.37-26.24-20.97-32.24,67.63-13.45,83.52,6.28,41.38,20.22,41.38,20.22c0,0,21.54,1.05,21.52,9.78s-19.9,19.33-19.9,19.33c0,0-28.99,24.88-105.55-23.36Z"/>
    <path class="cls-9" d="m294.25,253.99v2.45s55.8-27.63,67.97-21.4c0,0,49.93-20.21,98.55,15.51,0,0,51.19,37.09,42.9,62.9l3.08,4.05s2.37-23.68-9-31.96c0,0-12.63-29.72-20-32,0,0-32.63-12.72-35-24,0,0-27.37.72-31.37-11.28,0,0-11.26,9.55-33.63,4.28,0,0-14.63,13.28-43,9,0,0-31.37,22.88-40.37,20.8"/>
    <path class="cls-9" d="m280.47,170.85l18.91,7.41s2.12,2.24,5.38,5.78c10.95,11.88,34.78,38.38,34.71,43.97,0,0-4.15,3.25-3.12,3.75s-37.97-45.5-37.97-45.5l-17.91-15.41Z"/>
    <path class="cls-9" d="m344.36,149.66h7.91s30.6,21.6,32.36,74.1l-6.87-1.22-13.26-43.93-20.13-28.95Z"/>
    <path class="cls-9" d="m411.75,216.54l1.61,5.1,6.79-12.9,2.23-18.48-2.59-18.37-3.91-13.42-4.13,1.59s5.96,8.46,5.8,11.83-1.66,10.11-1.66,10.11l-1.42,16.54-2.71,18Z"/>
    <path class="cls-9" d="m487.38,243.26l3.52-13.72-.13-9.57,8.63,15.29,2.48,13s-1.46,5.47-2.48,5.73-8.63-3.45-8.63-3.45l-6.51-2.28,3.12-5Z"/>
    <path class="cls-9" d="m501.88,283.54h8.18l3.91,9.08,2.94,8.05s4.47-9.41-11.03-27.91c0,0-2.5,12.06-4,10.78Z"/>
    <path class="cls-9" d="m377.88,119.16s24.97,4.25,31.24,6.18,0,7.42,0,7.42c0,0-3.74,6.5-.74,8.5s-3.35,6.43-3.35,6.43l-27.15-28.53Z"/>
    <path class="cls-9" d="m270.25,120.49c-1.9.71,28.97-13.79,36.05-11.51s9.71,10.18,9.71,10.18l5.83,10.4s-30.72-16.84-51.59-9.07Z"/>
    <path class="cls-9" d="m207.03,160.09c1.35-.83,17.29-15.66,18.82-15.24s14.1,7.62,14.1,7.62l-3.68,1.95s-25.14,1.4-30.51,7.13,1.28-1.45,1.28-1.45Z"/>
    <path class="cls-9" d="m164.75,204.54l3.77-9.23,7.82,6.27s-11.22,3.23-11.59,2.95Z"/>
  </g>
  <g id="Light-Points">
    <circle class="cls-11" cx="275.38" cy="258.26" r="5"/>
  </g>
  <g id="Pen">
    <ellipse class="cls-3" cx="277.38" cy="262.76" rx="17" ry="14.5"/>
    <path class="cls-3" d="m266.88,275.76s-16,46-93,30c0,0-65-39-11-98l2-3s6-28,41-43c0,0,26-31,63-40,0,0,37-29,107-2,0,0,53-4,82,48,0,0,31,23,31,49,0,0,23,37,17,56,0,0,25,23.92,1,45.46,0,0,1-26.46-9-32.46,0,0-10-27-20-32,0,0-27-10-35-24,0,0-30,1-31-13,0,0-3,10-34,6,0,0-10,11-43,9,0,0-17,14.15-40.5,20.58,0,0-2.21,3.12-3.36,1.77-.75-.88-9.78-7.52-18.58-5.14-.41.11-9.87,2.84-11.56,11.79-1.05,5.54,1.28,11.36,6,15Z"/>
    <path class="cls-3" d="m164.88,204.76s63.15-21.09,127.57,49.46"/>
    <path class="cls-3" d="m205.88,161.76s58-41,129,70"/>
    <path class="cls-3" d="m268.88,121.76s76-27,109,101"/>
    <path class="cls-3" d="m375.88,119.76s60,34,36,97"/>
    <path class="cls-3" d="m457.88,167.76s13,35-15,62"/>
    <path class="cls-3" d="m488.88,216.76s9,11-11,37"/>
    <path class="cls-3" d="m505.88,272.76s0,11-8,13"/>
    <path class="cls-3" d="m152.88,325.76c-1.41.04-34-7.08,0-7.54,0,0,17-2.46,21-12.46l7.71,1.43s5.29,17.57-28.71,18.57Z"/>
    <path class="cls-3" d="m249.88,311.76c.93-.37,50-7,6,12,0,0-31,11-45,4,0,0-7.44-6.52-3.72-17.26,0,0,14.22-2.88,14.47-2.81s-1.75,16.07,28.25,4.07Z"/>
    <path class="cls-3" d="m183.51,307.69s11.37,8.07,22.37,8.07l1.28-5.26s-25.02-1.88-23.65-2.81Z"/>
    <path class="cls-3" d="m272.61,311.05s54.27-20.29,70.27-18.29c0,0,13,3,16,7,0,0,83,76.92,148,18.46,0,0-18.58-13.46-23.79-22.46"/>
    <path class="cls-3" d="m290.73,271.73s7.15,1.03,13.15-3.97c1.72-1.43,16-16.09,19.5-13.54,0,0,18.5-11.46,27.5-9.46,0,0,33-8,36-3,0,0,27-5,29,2,0,0,20,0,22,9,0,0,21.38,0,27.19,15,0,0,13.83,1.84,19.32,14.42,0,0,16.49,12.58,2.49,13.58h-3.79s-58.6-79.73-170.91-27.87c0,0-10.21,4.13-6.76,0"/>
  </g>
</svg>