<?xml version="1.0" encoding="UTF-8"?>
<svg xmlns="http://www.w3.org/2000/svg" viewBox="0 0 535 478.81">
  <defs>
    <style>
      .cls-1 {
        fill: #f2f2f2;
      }

      .cls-2 {
        fill: #e6e6e6;
      }

      .cls-3, .cls-4, .cls-5, .cls-6, .cls-7 {
        fill: #fff;
      }

      .cls-8 {
        fill: #fcee21;
      }

      .cls-9 {
        fill: #662d91;
      }

      .cls-10 {
        fill: #666;
      }

      .cls-11 {
        fill: #d2a7e7;
      }

      .cls-12 {
        fill: #c68759;
      }

      .cls-13 {
        fill: #42210b;
      }

      .cls-14 {
        fill: #1b1464;
      }

      .cls-15 {
        fill: gray;
      }

      .cls-16 {
        fill: #2e3192;
      }

      .cls-17 {
        fill: #7480ff;
      }

      .cls-18 {
        stroke-width: 2px;
      }

      .cls-18, .cls-19 {
        fill: none;
        stroke: #000;
        stroke-miterlimit: 10;
      }

      .cls-20, .cls-6 {
        opacity: .45;
      }

      .cls-4 {
        opacity: .75;
      }

      .cls-5 {
        opacity: .3;
      }

      .cls-7 {
        opacity: .4;
      }
    </style>
  </defs>
  <g id="FIll-In">
    <path class="cls-12" d="m290.5,96c-2.08,2.59-5.11,6.97-7,13-1.22,3.89-1.59,7.6-1.29,18.35.16,5.73.49,12.31,1.29,21.65,1.34,15.67,2.69,23.76,3.07,25.99.85,4.95,1.75,9.18,1.93,10.01.99,4.49,1.9,8.15,2.5,10.5,4.58,3.55,11.44,8.28,20.5,12.5,5.7,2.65,10.12,4.1,17,6.36,10.62,3.48,18.02,5.26,26.05,7.14,12.44,2.91,21.35.82,25.95,1.5.51.08,1.61.27,3,0,.95-.18,1.89-.56,3-1,.66-.26,1.19-.5,1.55-.66h0c.57-.07,1.36-.18,2.45-.34,8.56-1.28,21.78-4.26,36-12,3.81-2.08,8.89-5.14,14.5-9.5,1.79-13.54,2.51-28.7,3.48-45.19,1.33-22.56,1.84-45.06-1.43-44.81-5.46-2.76-13.91-6.89-24.55-11.5-9.75-4.22-8.25-3.17-12-5-13.09-6.37-37.49-22.07-42.66-25.25-.49-.3-1.18-.61-1.96-.53-2.46.25-3.81,4.11-4.39,5.78-.3.87-1.29,3.89-1,10,.07,1.49.21,3.16,1,8,.44,2.72,1.09,6.48,2,11-2.81-.14-7.1-.7-11.81-2.81-2.3-1.03-5.61-2.85-10.19-7.19-3.81-3.61-9.85-10.27-15-21-2.38,3.42-4.79,7.5-6.88,12.26-6.69,15.22-6.65,29.46-5.84,38.04,0,0-11.78-4.26-19.28-25.3Z"/>
    <path class="cls-12" d="m453.5,169c1.16.23,3.94.62,6-1,1-.79,1.46-1.76,2-3,1.67-3.85,2.51-5.77,3-8,1.44-6.5,3.2-8.13,5-15,2.39-9.15,3.56-22.66,0-24-1.1-.42-3.11.16-7.12,5,.53,2.61,1.08,6.38.94,10.92-.11,3.68-.65,7.46-2.83,15.08-1.49,5.2-3.7,12.05-7,20Z"/>
    <path class="cls-12" d="m275.09,166.28c.41-1.28-8.78-10.96-9.69-14.62l-1.06-5.71-4.46-14.93s-2.43-10.02,2.59-9.52c.27.06.66.2,1.02.5,1.04.88.87,2.35.85,2.5,3.58,13.93,7.16,27.85,10.74,41.78Z"/>
    <path class="cls-12" d="m326.47,358.2s.59.2,1.13.32c2.95.69,11.37,1,27.98-15.6l-1.36-6.68,5.02-4.13s-19.2-13.87-17.47-16.99-3.77,3.38-3.77,3.38c-1.49-.84-3.33-1.73-5.5-2.5-2.13-.76-4.09-1.22-5.75-1.51-9.54,6.62-15.71,14.76-15.25,20.51.08.98.56,4.65,2,9,.38,1.15,1.07,3.25,2,5,.96,1.82,3.7,6.13,10.97,9.2Z"/>
    <path class="cls-12" d="m312.5,347c-1.53,1.68-3.06,3.36-4.59,5.05,0,0-20.25-10.38-8.83-17.21,0,0,1.65.13,3.54.42,2.56.4,3.82.69,4.97,1.42,2.11,1.34,2.95,3.62,3.91,6.32.58,1.63.86,3.04,1,4Z"/>
    <path class="cls-12" d="m299.08,328.83s4.03.44,4.22,6.31-4.22-.3-4.22-.3c0,0-2.42-7.17,0-6Z"/>
    <path class="cls-2" d="m318,398.5c-4.33,1.3-6.8.51-8.15-.27-6.12-3.51-5.17-15.71-4.35-26.23.6-7.69,1.94-13.9,3-18,.66.1,1.49.34,2,1,.83,1.08.2,2.44,1,3,.49.35.97,0,2,0,.76,0,1.86.2,3.22,1.14l.78-.14c.33.05.67.1,1,.15,1,.62,2,1.23,3,1.85,1.71.23,3.07.14,4,0,1.14-.17,1.8-.41,4-1,1.42-.38,2.6-.67,3.37-.85,1.95-.4,4.15-.87,6.32-1.96,4-2,9.68-6.06,16.39-14.27,0,0-1.15-6.95-1.36-6.68s5.02-4.13,5.02-4.13c0,0,34.77-16.61,65.77-42.61,0,0,43.4,93.77,25.2,107.88,0,0-17.33,10.7-74.77-18.09,0,0-56.43,23.21-57.43,19.21Z"/>
    <path class="cls-2" d="m341.77,315.12c5.81-6.58,10.74-11.91,14.23-15.62,34.79-36.99,47.72-42.33,49-44,.08-.1.91-1.24,1.64-1.08.16.04.27.13.36.08.25-.14-.06-1.15-.36-2,0,0-12.2-15.05-3.77-20.3,1.13-.7,18.13-2.7,32.13,49.3,0,0-73.53,54.22-75.77,50.61l-17.47-16.99Z"/>
    <path class="cls-2" d="m317.5,263c-.56-.1-1.37-.35-2-1-1.9-1.98-.17-5.71,2.88-15.15,2.66-8.24,2.83-10.01,5.12-11.85,2.86-2.29,6.36-2.55,8.5-2.5-1.78,3.34-3.59,7.26-5.17,11.75-2.49,7.06-3.72,13.5-4.33,18.75h-5Z"/>
    <path class="cls-2" d="m347.5,307c40.4-37.94,56.67-52.42,58.14-52.58.04,0,.12,0,.19-.06,1.03-1.06-13.72-16.67-3.95-22.16l-2-1.88-8.21,11.1,3.57.36,1.8,2.25v3.54l-4.05,1.66-6.28-.53-1.03-1.23-19.66,16.96-35-33.93c-1.92,3.66-3.99,8.31-5.63,13.87-1.76,5.96-2.54,11.31-2.87,15.63-.55,1.6-.31,2.49,0,3,.56.92,1.54.94,3,2,.97.7,1.62,1.48,2,2,.67.67,1.33,1.33,2,2,1,.67,2,1.33,3,2-1-.67-2-1.33-3-2,.33.33.67.67,1,1,.9.19,1.92.5,3,1,3.1,1.42,5.01,3.63,6,5,.37,2.11,1.15,5.38,3,9,2.15,4.19,3.33,4.15,4,7,.89,3.82-.83,5.64,0,11,.27,1.72.69,3.1,1,4Z"/>
    <path class="cls-1" d="m332,230.5c1.35-.99,2.53-1.83,3.5-2.5,4.02-2.8,4.57-2.93,5-3,1.11-.17,3.99-.3,4-.63,0,0,0,0,0,0,.17-.13,22.49,30.06,22.49,30.06l25.34-30.78s7.89,4.02,8.53,6.69l-8.21,11.1-.31-2.16-1.34.23-1.24,2.29-2.07.15s-1.87.99-1.03,5.53l-19.66,16.96-35-33.93Z"/>
    <path class="cls-15" d="m351.19,222.44s-2.69,4.56-1.19,8.06l17,23.92,20.5-24.42s-.77-7.82-1.39-7.41c-.61.41-13.61,1.41-13.61,1.41l-13-1c-1.33-.33-2.67-.67-4-1h-3c-.44.15-.87.29-1.31.44Z"/>
    <path class="cls-15" d="m318.06,399.33l6.01,20.86s20.87,43.59,22.65,43.7,19.03-4.45,19.03-4.45l-5.71-73.63s-40.42,14.84-41.98,13.51Z"/>
    <path class="cls-15" d="m442.54,458.69l19.51-12.3c-7.15-9.56-14.44-20.91-20.98-34.17-2.05-4.16-3.9-8.24-5.57-12.22-8.93-1.73-16.34-3.51-22-5-15.96-4.19-17.66-5.94-19-6,0,0-1.85-.08-2.34-.94,0,0,0,0,0,0,0,0,4.78,14.29,14.34,29.94,2.8,4.59,9.69,15.3,21,27,5.64,5.83,10.89,10.37,15.04,13.69Z"/>
    <path class="cls-13" d="m351.17,471s14.39.25,14.36-.87.22-10.68.22-10.68l-19.03,4.45,4.45,7.11Z"/>
    <path class="cls-13" d="m443.51,459.44l6.15,4.36s19.79-3.77,18.32-9.29l-5.93-8.13-19.51,12.3.98.75Z"/>
    <path class="cls-8" d="m444.73,87.04l8.93-3.24-7.93-13.89-7,4.5s6.23,6.67,6,12.63Z"/>
    <polygon class="cls-8" points="313.5 88 315.83 81.93 305.31 75.35 299 80.5 313.5 88"/>
    <polygon class="cls-10" points="389.76 243.35 392.34 243.35 392.34 239.27 391 239.5 389.76 243.35"/>
    <path class="cls-10" d="m362.21,291.76s-1.03-11.9,1.63-15.33,6.91,7.73,5.29,9.15-6.92,6.18-6.92,6.18Z"/>
    <path class="cls-10" d="m363.5,349c-.11-.98-.18-2.36,0-4,.41-3.73,2.13-8.54,3.7-8.48,1.69.06,2.94,5.72,3.3,9.48.69,7.32-1.28,15.42-3.3,15.48-1.59.05-3.29-4.91-3.7-8.48-.18-1.6-.12-2.98,0-4Z"/>
    <path class="cls-11" d="m348.5,229.55c-.06-2.07.26-4.65,2-6.55.68-.74.97-.71,1-1,.32-2.66-24.53-4.43-47-17-5.94-3.32-10.3-6.61-12.55-8.39.35,2.82.7,5.63,1.05,8.45l-3.24-7.11-13.64-29.87s-12.41-15.46-11.01-17.27c1.4-1.81-5.86-21.21-5.86-21.21,0,0-1.79-8.6,3.23-8.1l1.87.97s.55-17.83,2.85-19.15l-12.59-.75,3.06,26.64s10.83,73.79,24.33,83.29c12.55,6.1,19.95,9,24.5,10.5,1.32.43,3.03.96,6,2,6.46,2.26,8.18,3.22,12,4.18,0,0,7.5,1.32,7.5,1.32,0,0,7.03-6.07,9.76-5.78l2.74-.35,3.99,5.19Z"/>
    <path class="cls-11" d="m388.5,229c-.8-2.14-1.59-4.27-2.39-6.41,0,0,45.11-9.24,57.25-24.41l11.15-28.67,4.99-1.5c3.17-6.18,6.58-14.24,9-24,1.75-7.06,2.61-13.5,3-19-.25-1.58-.62-4.01-1-7-.81-6.47-.84-9.09-1.3-12.42-.45-3.3-1.44-8.06-3.84-13.82,0,0,18.2-7.03,18.17-7.4,0,0,0,0,0,0,.02,0,3.35,9.13,3.97,18.64.28,4.22-.15,7.54-1,14-.12.9-1.5,11.15-4,21-3.08,12.15-10.23,32.96-21.5,58.5-6.3,4.71-14.02,9.41-22.81,14.29-12.94,7.18-28.94,14.42-41.19,14.68l-4.66-1.83c-1.28,1.79-2.56,3.57-3.84,5.36Z"/>
    <path class="cls-11" d="m468.51,105.16c-.54-3.65.4-4.51,0-7.16-.23-1.51-.92-3.72-3.13-6.24l21.13,3.24c-.39-2.55-1.19-6.49-3-11-3.42-8.5-7.93-12.73-16-23-6.83-8.69-5.05-7.5-11-15-7.42-9.35-14.14-17.82-25-26-6.68-5.03-13.48-10.16-24-13-8.89-2.4-16.33-2.06-24.4-1.69-.44.02-.88.04-1.32.07-2.73-1.5-31.22-15.54-86.78,19.13-.71.44-1.4.87-2.07,1.29-.02.03-.03.06-.05.09-.05.08-.12.15-.17.23.98-.61,1.57-.97,1.57-.97,0,0-45.56,44-39.67,77.43,0,0,12.29,1.07,12.59.75,0,0,0,0,0,0,.06.03-1.91,3.84-2.71,6.68-.54,1.9-.61,3.61,0,9,.8,7.04,1.88,12.39,2,13,2.61,13.71,2.15,12.53,3,16,.9,3.63,2.33,8.71,4.67,14.7,5.2,11.75,10.39,23.5,15.59,35.25.58,1.35,1.16,2.7,1.74,4.05.03-.47.05-1.16,0-2-.15-2.62-.84-4.53-1-5-2.12-6.21-5.29-34.87-6-39-.15-.85-.3-1.72-.3-1.72-.22-1.28-.38-2.2-.39-2.25-2.79-15.94-1.31-31.03-1.31-31.03.48-4.87.98-9.74,3-16,1.44-4.47,3.14-8.06,4.5-10.6.46,2.67,1.17,4.98,1.92,6.93.94,2.45,1.85,4.25,2.14,4.81,2.13,4.09,4.22,8.09,7.44,9.86.83.46,1.88.85,3,2,1.04,1.07,1.1,1.73,2,2,.92.28,1.75-.14,2.5.5.27.23.46.53.5.5.06-.04-.25-.62-.5-1.06,0,0,2.5-30.94,4.5-30.94l-14.5-8.5,6.31-5.15,10.85,5.85s4.34-8.2,5.84-7.7c0,0-4.36-10.27-5.34-12.43,1.47,2.75,10.87,18.98,10.87,18.98,1.86,3.35,5.25,8.41,10.98,12.96,8.27,6.56,16.84,8.4,21,9,0,0-8-33,2.5-35.5,6.73,4.34,13.82,8.71,21.25,13.07,8.29,4.86,16.39,9.32,24.25,13.43,1.66.65,3.33,1.31,5,2,11.98,4.91,23.15,10.31,33.54,16-.57,0-1.13,0-1.7.01,1.28,8.88,1.35,16.02,1.16,20.98-.14,3.63-.37,5.05-.65,10.93-.41,8.67-.35,15.01-.35,17.07,0,7.01-.62,18.54-3.37,38.48.08.05.22.13.41.16.42.06,1.12-.11,1.82-1.47,1.14-2.17,11.51-30.64,11.51-30.64,2.45-5.62,5.12-13.24,6.62-22.53,1.32-8.18,1.37-15.36,1-21,.26-.7.82-1.92,2-3,1.97-1.8,4.3-1.98,5-2,.61,1.71.87,2.03,1,2,.49-.11.25-5.52-1-10-.2-.73-.64-2.47-.99-4.84Zm-22.45,5.84c.16-.82.3-1.67.44-2.52,0,1.06,0,1.94,0,2.52-.15,0-.29,0-.44,0Zm-.53-24.01c-.81-2.72-1.95-5.4-3.48-7.97-1.07-1.8-2.35-3.58-3.86-5.31.1.1.21.2.31.3,2.41-1.36,4.82-2.73,7.23-4.09l7.93,13.89-8.13,3.19Z"/>
    <path class="cls-14" d="m304.5,170c2.68,1.51,6.02,3.01,10,4,13.3,3.33,24.7-1.18,29.3-3.33.41-.09,1.04-.28,1.7-.67,3.28-1.94,3.77-6.72,4-9,.25-2.48-.21-2.01,0-6,.16-3.13.49-4.28,0-6-.56-1.95-1.79-3.32-2.77-4.19-3.59-2.6-8.33-5.24-14.23-6.81-4.18-1.12-12.09-3.11-21,0-4.07,1.42-7.08,3.46-9,5-2.32,3.37-2.91,6.09-3,8-.01.27,0,.31,0,3,0,4.32,0,5.53,0,6,.04,2.14.97,5.36,5,10Z"/>
    <path class="cls-14" d="m383.5,168s18,11,39,4c0,0,7-4,8-8,0,0,4.82-12.89-2.09-20.45-1.03-1-2.65-2.39-4.91-3.55-2.93-1.51-5.6-1.96-7.92-2.22-8.71-.97-16.13-1.8-24.08,2.22-2.27,1.15-5.64,3.23-9,7-.31.7-.71,1.72-1,3-.41,1.83-.39,3.28-.38,4.12.05,2.65.78,7.61,2.38,13.88Z"/>
    <path class="cls-9" d="m367.97,67.21c.53.79,69.26,39.56,75.4,39.68,0,0,3.98-5.81-1.44-9.85l-73.96-29.83Z"/>
    <path class="cls-9" d="m446.59,188.95s14.91-46.95,11.91-60.95-12-17-12-17c0,0,7.19,65,.09,73"/>
    <path class="cls-9" d="m278.67,94.4c-3.17.6-7.95,60.3,3.44,78.45,0,0-6.61-55.85,1.39-63.85v-14.6h-4.83Z"/>
    <path class="cls-9" d="m304.5,118c1-5-.91-24.39,4.05-26.69s-12.96,3.1-12.96,3.1"/>
  </g>
  <g id="Bug-Fill-In">
    <path class="cls-15" d="m302.06,330.09l1.67-4.66,1.32-5.12-.42-6.76-3.61-7.77s-4.15-6-3.84-6.39c.32-.39-3.65-6.77-3.65-6.77l-2.16-4.41s-1.23-3.82-1.55-3.52c-.32.3-1.07-4.02-1.07-4.02-1.25-1.31-1.39-2.14-1.26-2.68.11-.43.55-1.28.51-1.3,0,0-.03,0-.04.01-.47.28,2.65-1.22,2.65-1.22h1.52l-.76,1.42s2.93,1.08,2.02,1.08,2.54.32,2.54.32l1.15-.7-.18-.96s-2.74-.31-2.58-.49c.16-.17-.8-.83-.8-.83l3.14.32s1.76.65,1.79.99,1.34,2.49,1.34,2.49l1.69.99,3.69.99,3.94,2.24,2.08,1.72.27-1.72s.84-1.12.43-.75c-.41.38,2.59.73,2.59,1.06s1.89,1.04,1.45.68c-.45-.36,1.33,3.43,1.33,3.43l2.88,3.97,2,4.33s1.97,3.63,1.65,3.27c-.32-.36,1.07,3.05,1.07,3.05l1.17,3.37.98,3.99.22,3.13-1.29,2.14-2.63,1.73-2.97,2.45-3.07,2.83-1.95,3.04-1.89,3.7-1.6,4.4-.38,4.48.91,4.87.49-.51s-2.99-1.86-2.69-1.44c.29.42-1.83-2.92-1.83-2.92l-2.72-1.81-1.39-1c-.77-1.45-1.54-2.9-2.31-4.35"/>
    <circle cx="315.5" cy="279" r="4"/>
    <path class="cls-16" d="m277.53,278l3.19-4.14,4.84-1.47,3.96.59,1.78.7-.68,1.82-1.77.28-2.72-.28h-1.69s-3.87,3.5-6.91,2.5Z"/>
    <path class="cls-16" d="m298.5,277.16l2.03,2.22,3.46,1.31,3.2,1.46s3.89,2.09,3.1,1.98.62-1.67.62-1.67l-1.49-3.3-2.43-1.49-2.69-.99-5.79.5Z"/>
    <path class="cls-9" d="m318.29,289.54l5.61,2.77,2.18,4.97,2.17,6.53,1.25,5.94.84,5.23-2.33-.78s-1.1-6.8-1.31-6.5-2.2-7.7-2.2-7.7l-2.34-5.11s-4.08-5.81-3.87-5.35Z"/>
    <path class="cls-2" d="m315.57,283.62c-.07.38,3.44-1.37,2.18-.99s.84-1.95.84-1.95l.38.29.52,2.03,2.03,2.84s4.52,3.96,4.25,3.56,1.03,2.91,1.03,2.91l1.21,4.72s2.85,3.12,2.67,3.04,0,2.78,0,2.78v3.28s2.65,1.42,1.73,2.14,1.87,1.48,1.87,1.48c0,0-1.55,1.72-1.17,1.98s-1.12,3.24-1.12,3.24l-1.63-.71-.87-4.27-.39-3.87-1.39-3.88-1.02-3.08-1.53-4.02-.84-2.84s-3-2.16-2.91-2.24-3.12-.89-3.12-.89l-2.35-4.83"/>
    <path class="cls-17" d="m290.16,272.39c.34-.39,2.11-4.77,2.11-4.77l5.77-5.45,4.56-1.82h5.3l5.23,1.12,3.48,1.53,2.24,1.95,1.59,3.72s.67,2.53.36,2.93c-.31.4-.14,3.69-.14,3.69l-.59,3.72-.31,1.39-.33-2.07-1.14-2.18-1.7-1.14h-2.28l-2.39,1.66-.42,1.34s-2,.36-2,.18-.69.59-.69.59l-2.72-2.11-3.14-.5-3.14.5-3.14-.99-2.61-.66c-.96.71-2.09.59-2.57,0-.39-.49-.23-1.19-.2-1.32l-1.14-1.29Z"/>
    <path class="cls-17" d="m317.5,263s7.97-.16,12.49,6.92c0,0,4.05,4.24-2.72,20.16,0,0-9.41-6.83-8.09-7.46s4.32-15.62-1.68-19.62Z"/>
    <path class="cls-17" d="m332,299.94c.44-.24,11.03-9.23,9.77-15.58s.47-8.29-11.4-14.82c0,0,4.54,9.62-3.67,20.55,0,0,1.8,11.8,5.3,9.86Z"/>
    <path class="cls-17" d="m331.53,300.11s11.72-8.94,10.35-15.03c.78.78,1.85,2,2.76,3.71,1.76,3.31,1.84,6.4,1.87,8.21.02,1.44-.1,3.54-.78,6,.09,1.05-.13,1.77-.31,2.2-1.62,3.83-8.59,3.81-8.91,3.8-.47,0-.85-.04-1.09-.06-.38.13-.75.26-1.13.39,0,0-5.74-1.1-2.76-9.21Z"/>
    <path class="cls-17" d="m332.18,314.62l2.56-4.86s10.2-1.35,10.98-5.06l1.42,3.02-5.59,6.89-2.55,2.99h-3.13l-3.69-2.99Z"/>
    <path class="cls-15" d="m309.5,350c-.08.06-1.08.84-1,2,.08,1.1,1.09,2.08,2.43,2.16l7.86.8c-1.76-2.99-3.53-5.97-5.29-8.96l-4,4Z"/>
    <path class="cls-17" d="m311.99,357.15l6.51,2.01h4.02s2.47-2.69,1.22-1.8-3.74-1.84-3.74-1.84l-9.07-.32,1.06,1.96Z"/>
    <path d="m291.7,276.39s3.85-1.43,5.4,1.19c0,0-6.84,1.6-5.4-1.19Z"/>
    <line class="cls-2" x1="309.78" y1="278.75" x2="311.24" y2="278.46"/>
    <polygon class="cls-15" points="310.91 280.68 311.5 279 309.29 278.8 310.39 281.3 310.91 280.68"/>
  </g>
  <g id="Lights">
    <path class="cls-6" d="m307,171.5s4.68-11.61,20.59-9.05,21.14,2.13,20.53,4.34-1.81,5.67-17.71,7.94-24.9-1.73-23.4-3.23Z"/>
    <path class="cls-6" d="m382.56,164c6.18-1.39,11.32-2.36,14.94-3,0,0,23.95-4.22,32.21,1.08.67.43.79.92.79.92s.04.15,0,1c-3.8,6.42-8.25,8.83-10.5,9.79-2.89,1.23-3.41.59-22.5-.79,0,0-3.56-.26-11-3-.57-.21-1.62-.61-2.5-1.62-1.32-1.5-1.45-3.41-1.44-4.38Z"/>
    <path class="cls-6" d="m315.37,369.49c-2.87-1.49-3.38,21.96-3.38,21.96,0,0,33.51.55,44.51-13.45s-41.13-8.51-41.13-8.51Z"/>
    <path class="cls-6" d="m387,379.94s49.52,23.96,58.51,11.51c0,0,8.11-13.45.55-16.45s-23.9-9.14-33.23-6.57-29.33,5.45-25.83,11.51Z"/>
    <path class="cls-6" d="m346.72,423.38c-1.28-.03-11.22,5.62-7.22,9.62s12.51,0,12.51,0c0,0,10.93-9.25-5.29-9.62Z"/>
    <path class="cls-6" d="m424.66,428.3s-7.16-6.3-1.16-7.3,9-4.29,11.5-2.15,2.5,7.15-.5,8.15-9.84,1.3-9.84,1.3Z"/>
    <path class="cls-6" d="m332.87,354.56s-16.23-5.9-15.8-19.73,15.8,9.87,15.8,9.87c0,0,9.37,7.43,0,9.87Z"/>
    <path class="cls-6" d="m299.27,342.53s-2.77-3.53.23-3.53h5.02s4.51,5.06-5.26,3.53Z"/>
    <path class="cls-6" d="m366.43,344.45s-3.07,4.68,0,10.11,2.93-7.66,0-10.11Z"/>
    <path class="cls-6" d="m427.1,276.43s-15.38,4.45-13.99,13.01,16.6-9.87,16.6-9.87l-2.61-3.14Z"/>
    <path class="cls-6" d="m363.81,326.69s-15.22-3.27-14.27-12.48,24.58,10.17,14.27,12.48Z"/>
    <path class="cls-6" d="m365.75,281.75s-1.88,1.92-1.56,6.08,3.81-8.33,1.56-6.08Z"/>
    <path class="cls-6" d="m336,230.5c1.45-.62,2.63-5.5,7.57-3s15.76,22.89,15.76,22.89c0,0-26.83-18.39-23.33-19.89Z"/>
    <polygon class="cls-6" points="443.36 75.35 445.92 78.45 446.59 75.35 443.36 75.35"/>
    <polygon class="cls-6" points="304.49 80.5 307.58 80.5 306.03 78.45 304.49 80.5"/>
    <path class="cls-6" d="m407.5,10.22c-9-5.22-24.4-4.91-24.4-4.91,0,0-43.98-13.18-79.79,14.25-35.81,27.44-30.31,30.69-30.31,30.69l-8.91,14s9.41,11.74,19.41,5.75,30.5-19.57,30.5-19.57h0c33.49-1.16,76.43-5.66,84.02-19.94,0,0,18.48-15.06,9.48-20.27Z"/>
    <rect class="cls-6" x="466.89" y="123" width="1.88" height="3.41"/>
    <polygon class="cls-6" points="261.54 126.41 261.54 129.41 264.09 127.91 261.54 126.41"/>
    <polygon class="cls-6" points="429.71 75.35 439.48 81.93 441 90.73 425 88.5 413.02 83.04 429.71 75.35"/>
    <path class="cls-7" d="m310.39,302.5l-7.08,1.24-4.81-7.32-2.91-8.31-1.09-2.12,8.81-.91,6.47,3.61s4.01,5.24,3.86,6.28-1.14,6.1-1.14,6.1l-2.11,1.44Z"/>
    <path class="cls-7" d="m294.21,269.53s5.11-9.53,16.7-6.53c0,0,4.59,1.95,5.09,2.97,0,0-11.91,5.09-12.71,3.56h-9.08Z"/>
    <path class="cls-7" d="m323.35,267.14s2.68-1.26,3.91,3.8-.36,3.01-.57,2.53-3.5-2.19-3.35-2.83,0-3.5,0-3.5Z"/>
    <path class="cls-7" d="m334.29,274.29s3.21,1.93,3.71,4.32-6.14,9.78-5.82,10.08-2.32-3.69,0-5.69c0,0,1.9-8.42,2.11-8.71Z"/>
    <path class="cls-7" d="m343.71,291.76c.81-.16,2.79,5.24,1.79,7.24s-5.84,1.52-5.84,1.52c0,0,.25-7.99,4.05-8.75Z"/>
    <path class="cls-5" d="m307.36,264.43s2.93.63,3.03.6,3.11-.81,3.11-.81l-6.14-1.22v1.43Z"/>
  </g>
  <g id="Shadows">
    <path class="cls-20" d="m282.11,181.44v18.74s20.39,20.41,47.39,26.62l15.01-2.43,3.99,5.19,3.5-8.05c-8.47-1.46-19.44-4.19-31.5-9.5-11.65-5.13-20.81-11.13-27.5-16.24-.15.27-.35.69-.5,1.24-.37,1.37-.1,2.53,0,3,.4,1.83,1.2,5.92,1,6-.22.09-2.46-4.37-11.39-24.56Z"/>
    <path class="cls-20" d="m386.11,222.59c7.25-2.09,17.8-5.29,29.51-9.36,0,0,11.08-3.85,18.88-8.23,2.08-1.17,2.48-1.75,5-3,1.01-.5,2.03-.94,3-2,.82-.89,1.26-1.83,1.5-2.5,3.17-3.17,6.33-6.33,9.5-9.5l1.64,7.76-7.64,8.24c-5.78,4.16-13.45,8.91-23,13-10.28,4.41-19.64,6.73-27,8h-1l-3-1-1.46-.36-3.66,5.36c-.76-2.14-1.51-4.27-2.27-6.41Z"/>
    <polygon class="cls-20" points="394.06 241.31 398.02 239.5 398.85 235.67 400.1 233.58 399.34 233.08 393.59 241.42 394.06 241.31"/>
    <polyline class="cls-20" points="367 252.5 383.74 234.08 354.73 234.08 356.5 238.59"/>
    <path class="cls-20" d="m335.01,359.12l6.76.03s19.73-9.15,18.73-13.15.04-8.33.04-8.33l4.79-5.38,14.17-8.28,17.34-10.96,17.66-11.04,6.87-7.03-4.3.93s-53.54,37.24-55.05,36.17-7.29,3.75-7.29,3.75l1.77,6.72s-15.29,14.74-21.14,15.11l-.35,1.48Z"/>
    <path class="cls-20" d="m323,401.59c.5,1.41,2.37,7.6,2.37,7.6l32.59-14.15.54-9.04c-11.33,4-22.67,8-34,12l-1.5,3.59Z"/>
    <path class="cls-20" d="m397.5,390c-.31,2.01-1.36,10.07,3.36,14.12,1.85,1.59,3.25,1.41,14.64,1.88,7.85.33,17.09.83,17.88-1.88.24-.83-.25-2.23.73-3.3.43-.47.97-.7,1.39-.82-12.67-3.33-25.33-6.67-38-10Z"/>
    <polygon class="cls-20" points="354.73 468.6 356.24 471.08 366 469.5 364.15 465.26 354.73 468.6"/>
    <path class="cls-20" d="m450.28,459.44c-.78.56,1.35,3.93,1.35,3.93l11.59-3.32,4.76-5.54s-3.39-5.18-3.43-4.35-14.27,9.28-14.27,9.28Z"/>
    <path class="cls-20" d="m282.63,136.97l3.22-9.07,5.15-3.41,7.92-3.83,6.47-1.59s-13.89-11.08-14.89-23.08-.3-.54-.3-.54l-2.73,4.25-3.97,17.13-1.25,19.5.38.64Z"/>
    <path class="cls-20" d="m309.48,116.83s32.03-13.22,42.03-11.03c0,0,61-6.81,70,2.19s0-1.11,0-1.11l21.18,9.2.69-1.84-.31-4.75-35.55-16.5s-47-25-45.5-26.5-3.78,3.41-3.78,3.41l.28,4.09-1.4,4.45s-.5,2.4-.05,3.48c.45,1.07.88,6.57.88,6.57l-.43,4.5v5l1,4-15.07-4.96-3.76-3.58-6.02-5.45-10.95-15.29-5.08,5.76-4.11,10.53-3.27,17.89c.09,1.04.18,2.08.27,3.11"/>
    <path class="cls-20" d="m417.5,60c3.17-.55,6.34-1.09,9.51-1.64,1.83,1.21,3.66,2.42,5.49,3.64,2.67,1.67,5.33,3.33,8,5,1.33,1,2.67,2,4,3l-6,3c-2.67-2-5.33-4-8-6-2.18-1.33-4.51-2.68-7-4-2.06-1.09-4.06-2.09-6-3Z"/>
    <path class="cls-20" d="m459.5,164s9.08-19.07,8.04-19.03-3.6-2.02-4.32-1.99-4.32,19.11-4.32,19.11l-1.58,4.45,2.18-2.53Z"/>
    <path class="cls-20" d="m270.79,159.94c-.29.06-4.37-8.12-4.37-8.12,0,0-.08-5.55,0-5.18s-.92-4.63-.92-4.63l1.7-.86,2.22,12.81,2.08,4.05,1.2,4.08-1.9-2.14Z"/>
    <polygon class="cls-20" points="467.62 94.37 472.5 96 475.5 113.45 477.5 126 472.56 149.98 464.5 165 460.75 166.53 461.5 164 462.63 162.38 463.46 159.41 464.36 156.68 465.5 153 466.5 151 466.79 147.89 467.83 144.32 468.77 142.07 469.5 138 470.61 136.97 470.38 135.09 471.48 130.84 471.48 129 471.5 125 470.5 121 470.5 119 470.18 116.09 467.62 95.16 467.62 94.37"/>
    <path class="cls-20" d="m309.15,353.74c.35-.74,2.35,4.26,2.35,4.26l10.09,2.02,7.19-.87h5.51s.72,2.33.72,2.33l-12.93,3.5-9.58-1.97s-5.27-2.49-5.14-2.25.96-5.63.55-6.19,1.23-.82,1.23-.82Z"/>
    <path class="cls-20" d="m334.29,315.42c.21-.42,3.71-3.67,3.71-3.67l5.43-2.8,2.3-4.23,1.78,2.29-8.5,10.6-4.71-2.19Z"/>
    <path class="cls-20" d="m318.84,289.49l3.32-.8s4.18,3.31,3.76,3.31,2.82,5.83,2.82,5.83l1.94,2.24-.34,4.63,1.19,4.23,2.07.39-.79,3.12-.8,2.54h-1.66s-3.65-21.99-6.24-22.99-5.25-2.51-5.25-2.51Z"/>
    <path class="cls-20" d="m304.22,332.28c.28-.28,3.06-15.08,6.17-14.68,0,0,7.11-2.78,9.11-1.19s-3.5,6.05-3.5,6.05c0,0-4.5,10.14-4.5,11.34s1.1,7.1,1.1,7.1l-1.69.9-3-5.83-3.01-1.15-.67-2.55Z"/>
    <path class="cls-20" d="m309.43,350.53s3.05,5.76,2.56,6.61,12.94,2,12.94,2c0,0-4.06-3.6-3.75-3.87s-3.58-3.23-3.58-3.23l-2.61-6.05-1.42-2.19-4.15,6.72Z"/>
    <path class="cls-20" d="m328.75,268.25l5.54-1.11s11.22,8.64,12.21,13.25,4,22.02,3,24.32l-2,2.29-2-4,1.77-7.28-1.49-5.64-3.43-5.38-2.34-8.16-5-4.73-4.71-2.27-1.55-1.28Z"/>
    <path class="cls-20" d="m315.57,308.94l6.6-3.51s3.19,4.29,2.76,4.93-3.75,3.85-3.75,3.85l-5.18-2.47-.43-2.8Z"/>
  </g>
  <g id="Light-Points">
    <circle class="cls-4" cx="311" cy="145.5" r="3.5"/>
    <circle class="cls-4" cx="393" cy="144.5" r="3.5"/>
    <ellipse class="cls-5" cx="396" cy="15" rx="9.5" ry="4"/>
    <path class="cls-5" d="m300.54,25.5s14.73-13.5,18.34-10.5,6.65,11,2.63,10-23.94,7-20.98.5Z"/>
    <ellipse class="cls-3" cx="314.06" cy="276.93" rx="1.48" ry="1.06" transform="translate(-22.33 27.6) rotate(-4.86)"/>
  </g>
  <g id="Signature">
    <path d="m466.81,468.65c-1.3.42-3.03.32-4.16-.53-.46-.34-.84-.88-.77-1.48s.56-1.13,1.04-1.47c.34-.25.73-.47,1.13-.63.22-.09.47-.16.71-.16.11,0,.2.01.3.06.02,0,.06.05.07.05.03,0-.13-.09.03-.19-.41.26-.03.91.38.65.43-.27.41-.78.01-1.08-.43-.32-1.04-.27-1.52-.11-.94.3-1.88.91-2.46,1.72-.5.7-.58,1.59-.16,2.35.46.84,1.37,1.34,2.27,1.59,1.07.29,2.27.3,3.33-.04.46-.15.26-.87-.2-.72h0Z"/>
    <path d="m465.63,464.49c-4.73,2.04-9.45,4.09-14.18,6.13-.44.19-.06.84.38.65,4.73-2.04,9.45-4.09,14.18-6.13.44-.19.06-.84-.38-.65h0Z"/>
    <path d="m454.14,470.12c4.69-.98,9.38-1.96,14.07-2.93.47-.1.27-.82-.2-.72-4.69.98-9.38,1.96-14.07,2.93-.47.1-.27.82.2.72h0Z"/>
    <path d="m467.49,469.2c-.06.01-.11-.02-.15-.06v-.04s0,.04-.01,0c0-.03.01-.1,0-.02-.03.12-.06.25-.11.37,0,.02-.02.05-.03.07-.04.12.01-.03-.01.04-.03.06-.05.12-.08.18-.06.12-.13.24-.2.35-.29.45-.72.85-1.19,1.18-.17.12-.24.33-.13.51.1.16.35.25.51.13.64-.45,1.22-1,1.6-1.69.16-.3.3-.62.37-.96.05-.22.02-.43-.13-.61s-.39-.24-.62-.18c-.2.05-.31.27-.26.46.06.2.26.31.46.26h0Z"/>
    <path d="m469.26,468.46c-.04.11-.05.12-.1.23-.04.1-.09.19-.14.29-.09.19-.19.37-.3.55-.21.36-.47.74-.71,1.04-.12.15-.16.38,0,.53.14.12.4.16.53,0,.59-.75,1.09-1.55,1.44-2.44.07-.18-.08-.42-.26-.46-.22-.05-.38.07-.46.26h0Z"/>
    <path d="m473.19,463.76c-.63.26-1.14.71-.92,1.47.26.86,1.23,1.17,2.01,1.29,1.44.23,2.97-.08,4.39-.31,1.84-.3,3.66-.69,5.46-1.17l-.2-.72c-2.92.92-5.86,1.83-8.66,3.09-.62.28-5.04,1.97-3.22,3.02,1,.58,2.7.11,3.75-.02,1.49-.19,2.97-.42,4.45-.71,3.19-.63,6.32-1.54,9.34-2.73.34-.13.37-.6,0-.72-1.76-.58-3.63-.24-5.43,0-2.23.3-4.45.63-6.67.99-4.54.74-9.06,1.58-13.55,2.57s-8.65,2.05-12.84,3.53c-1.8.64-3.58,1.34-5.31,2.15-1.28.6-3.59,1.32-4,2.85-.13.47.6.67.72.2.27-.99,2.06-1.63,2.9-2.04s1.74-.81,2.62-1.18c1.76-.74,3.57-1.38,5.39-1.96,3.82-1.23,7.72-2.18,11.64-3.02s8.09-1.63,12.16-2.3c2.06-.34,4.12-.65,6.19-.94,1.93-.27,4.08-.76,5.99-.14v-.72c-4.8,1.89-9.86,3.05-14.99,3.57-.43.04-1.24.24-1.65.03-.37-.19-.27,0-.02-.28.15-.17.5-.3.69-.41,1.13-.64,2.31-1.18,3.52-1.67,2.35-.95,4.77-1.71,7.19-2.47.46-.14.27-.85-.2-.72-1.73.45-3.47.83-5.23,1.13-.92.15-1.85.31-2.79.37-.41.03-.83.04-1.24,0l-.68-.11c-.69-.05-.89-.46-.61-1.22.44-.18.25-.91-.2-.72h0Z"/>
  </g>
  <g id="Pen">
    <path class="cls-18" d="m352,221.5s-5,5-2,9h-.47l17.47,23.92,20.68-23.92h.32s-.61-5-5-8c0,0-29.72,1-29.86-1h-1.14Z"/>
    <path class="cls-18" d="m387.68,241.93c1.69-.06,2.18.25,2.32.57.15.36-.2.69,0,1,.27.42,1.28.39,2,0,.55-.3.67-.71,1-1,.57-.5,1.63-.96,3.78-.57.34.45.77,1.26,1.04,2.33.35,1.34.35,3.03-1.04,4.43,0,0-9.41,1.2-9.1,0,0,0-2.32-3.33,0-6.76Z"/>
    <polygon class="cls-18" points="391 239.5 392.34 239.5 392.34 243.35 389.76 243.35 391 239.5"/>
    <path class="cls-18" d="m435,281.5c-.05.05-.88.85-2,2-.63.65-1.14,1.2-1.5,1.58,0,0-68.84,48.48-72.17,46.95-3.33-1.53-17.79-14.29-17.56-16.91s30.23-31.62,32.23-32.62l32.64-28.08c-1.25-1.81-9.95-14.66-5.43-20.7.17-.23,1.25-1.63,2.97-2.12,12.34-3.47,33.53,47.21,30.83,49.89Z"/>
    <path class="cls-18" d="m359.33,332.03l-5.12,4.21,1.79,6.26s-15.7,16.08-22.85,16.54-17.15.46-21.65-24.04c0,0,1.93-14.08,14.71-20.79,0,0,5.79.29,11.79,4.29l3.77-3.38s14.89,18.45,17.56,16.91Z"/>
    <path class="cls-18" d="m312.5,346c-1.5,1.83-3,3.67-4.5,5.5,0,0-13-6-12-13s11.59-1.82,11.59-1.82c.91,1.09,1.96,2.52,2.91,4.32.99,1.87,1.61,3.6,2,5Z"/>
    <path class="cls-18" d="m299.08,334.83s-2.92-6.67,0-6,4.21,6.35,4.21,6.35l-4.21-.35Z"/>
    <path class="cls-18" d="m318,398.5s.34,21,33.17,72.5c0,0,13.83,1.5,14.83-1.5s-6-84-6-84c1.84-2.73-37.66,15.55-42,13Z"/>
    <path class="cls-18" d="m392,387.5s1.61,5.72,2.06,6.84c3.2,8.04,18.55,42.67,55.2,69.55,0,0,20.24-3.92,17.99-9.65,0,0-28.28-42.24-26.26-42.99l-4.99-11.75c-5.24-.63-10.94-1.58-17-3-10.46-2.45-19.5-5.71-27-9"/>
    <path class="cls-18" d="m308.51,351.28c-.32.14-.54.43-.6.77-.72,4.52-5.47,35.76.09,44.75,5.7,9.21,61-15.07,66.55-17.54.29-.13.6-.11.88.03,4.52,2.42,43.39,22.76,70.62,19.58,27.17-3.17-14.71-95.84-20.05-107.38-.27-.59-.48-2.4-1-2-6.33,4.94-13.09,9.12-17,12-12.86,9.46-22.59,16.57-36,24-5.25,2.91-9.66,5.09-12.56,6.48-.07.04-.14.08-.2.13-1.5,1.23-3.01,2.47-4.51,3.7-.31.26-.44.67-.33,1.06l1.44,5.04c.1.36,0,.74-.26,1-2.84,2.79-19.17,18.43-26.51,16.12-5.04,2.17-8.33.83-11.56-.04-6.03-1.62-5.55-2.19-6-2l-2.99-5.72Z"/>
    <path class="cls-18" d="m346.72,463.89s18.79-5.28,19.04-4.33.24,9.94.24,9.94c0,0,1.34,2-14.83,1.5l-4.45-7.11Z"/>
    <path class="cls-18" d="m442.54,458.69l19.51-12.3,5.2,7.85s6.27,5.04-17.99,9.65l-6.72-5.2Z"/>
    <path class="cls-18" d="m356.5,233.08s14.72,2.26,25,0"/>
    <ellipse class="cls-18" cx="367" cy="349" rx="4" ry="12.5"/>
    <path class="cls-18" d="m361.96,292s-1.82-11.55,1.82-14.99c0,0,5.22-2.72,5.22,8.49l-7.04,6.5Z"/>
    <path class="cls-18" d="m322.5,263h0c-1.82-3.66,4.13-20.56,7.44-28,.35-.78.66-1.48.94-2.09.69-1.5,1.12-2.41,1.12-2.41,1,0,31,32.86,35,33.93,0,0,18.31-15,19.66-16.96,0,0-1.29-4.1,1.03-5.53l2.07-.15,1.24-2.29h1.34v2.29s8.39-9.63,8.53-11.46c0,0-3.19-5.55-8.53-6.69"/>
    <path class="cls-18" d="m315.5,262c1.06-8.05,3.41-25.72,10.5-28.5.19-.07,4.55-1.79,5-1,.23.41.82-.76,0,0"/>
  </g>
  <g id="Head-Pen">
    <path class="cls-18" d="m291,195.5c1,1,78.54,61,153,2,0,0,27-62,17-76"/>
    <path class="cls-18" d="m291,94.4c-21,25.9,2,108.1,2,109.1,0,0-39-70-26-101"/>
    <path class="cls-18" d="m443.05,109.5c7.05,8-2.05,90-2.05,90"/>
    <path class="cls-18" d="m462.38,123c-.46-.64,5.62-9.5,8.62-2.5s-8.69,54.82-17.34,48.41c0,0,14.11-38.41,8.73-45.91Z"/>
    <path class="cls-18" d="m465,91.5c4,2,5.4,27.87,5.4,27.87,7.4,1.87-10.66,48.37-10.66,48.37-5.26,3.24-6.08,1.17-6.08,1.17l-9.66,28.59c-15.46,17-58.2,24.45-58.2,24.45,1.8,3.45,2.25,8.13,2.25,8.13l4.28-6.43,3.07,1.98c33.41-2.88,64.59-28.12,65.59-29.12,0,0,40-86,22-113S429-3.5,382,5.5c0,0-37-16-87,19,0,0-45,39-40,82,0,0,8,88,27,106,0,0,37,17,45,17l4.75.57s7.26-5.84,12.76-5.7l4,5.96s.5-7.83,3.5-8.83,0-.91,0-.91c0,0-37.99-6.09-60.99-25.09l2,9.56"/>
    <path class="cls-18" d="m276.07,167.08c.92,1.9-11.42-12.67-11.25-18.12s-10.87-26.45-2.35-27.45c0,0,.22-1,1.87,1.5s3.79,27.65,11.72,44.08Z"/>
    <path class="cls-18" d="m290,87.5s3,29,19,33c.48,2.05.15-37.91,13-47"/>
    <path class="cls-18" d="m316.16,59.79c-.16.71,17.84,41.71,42.84,41.71,0,0-6-33,3-35,0,0,35,24,53,30,2.12.71,31.06,14.52,31.06,14.52,0,0,3.78-24.62-8.72-38.26-1.88-2.05-4.12-3.85-6.81-5.28-20.53-10.97-12.53-6.97-12.53-6.97"/>
    <path class="cls-18" d="m445.73,69.91l7.93,13.89-8.93,3.24s-1.26-9.54-6-13.54l7-3.59Z"/>
    <polygon class="cls-18" points="314 88.5 299 80.5 305.31 75.35 316.16 81.2 314 88.5"/>
    <path class="cls-18" d="m341.76,116.83s-31.76-.33-45.76,7.67"/>
    <path class="cls-18" d="m381.38,116.83s38.59-3.33,58.11,6.17"/>
  </g>
  <g id="Bug-Pen">
    <ellipse class="cls-19" cx="315.05" cy="279.14" rx="3.81" ry="4.22"/>
    <path class="cls-19" d="m327.6,311.2c-.3-1.7-.69-3.03-2.24-7.46-1.63-4.66-2.45-6.98-2.69-7.46-1.18-2.32-2.3-3.69-3.41-5.25-.95-1.34-1.89-2.83-2.86-5.18-.38-.93-.65-1.72-.82-2.24-5.75.75-4.33-5.16-4.33-5.16-.67.06-1.34.12-2.02.18.39.99.69,1.84.9,2.49.13.41.28.87.45,1.49.21.79.35,1.47.45,1.99-1.19-.83-2.54-1.68-4.03-2.49-2.6-1.4-5.05-2.34-7.17-2.98-.3-.63-.85-1.6-1.79-2.49-.25-.23-.7-.65-1.34-.99-1.39-.74-2.78-.64-3.56-.5h-1.51c-.25.08-.5.16-.75.25-.46.16-.91.33-1.34.5-.4,0-.96.08-1.34.5-.38.41-1.68,2.31,5.21,15.89,1.67,3.3,4.1,7.81,7.34,13.03,8.07,11.53,1.34,24.76,1.34,24.76-.14.53-.27,1.05-.38,1.56,1.23.67,2.24,1.78,2.59,3.19,1.22.03,2.41.48,3.18,1.45,1,1.25,1.63,2.72,2.46,4.08.74.49,1.42.99,1.92,1.86.84,1.44.87,3.29.38,4.85-.51,1.61-1.51,2.73-2.78,3.44-.88.18-1.33.87-1.21,1.35.12.44.72.61.77.62.38.59,1.01,1.38,2,2,2.73,1.7,5.82.62,6.29.44.65.1,2.1.2,3.41-.67-1.06-.93-2.04-1.98-2.91-3.06-2.64-1-4.12-4-4.22-7.39-.52-1.43-.93-2.94-1.2-4.46-1.12-1.07-1.73-2.69-1.23-4.73.16-.74.37-1.47.6-2.19,0-.02,0-.04.01-.05.07-.2.14-.41.2-.61.22-.67.54-1.21.92-1.68.97-2.47,2.59-4.53,4.23-6.77-.01-1.14.46-2.32,1.65-3.36.34-.27.68-.55,1.02-.82.06-.05.13-.08.19-.13,1.41-1.01,2.9-1.82,4.29-2.9.96-.74,2.1-.9,3.2-.68.18-.07.35-.11.53-.16-.04-1.27-.14-2.55-.41-4.06Z"/>
    <path class="cls-19" d="m291.3,273.68s-7.62-3.98-12.55,1.99,6.27,0,6.27,0c0,0,7.17,1.49,6.27-1.99Z"/>
    <path class="cls-19" d="m298.05,276.91c2.08-.08,4.17-.17,6.25-.25.5.08,1.11.22,1.79.5.74.3,1.34.67,1.79.99l1.34,1.49s1.23,1.29,1.69,2.8c.18.61.51,1.81.11,2.17-.67.59-2.27-2.11-5.83-3.48-2.34-.9-3.63-.49-5.38-1.99-.89-.77-1.45-1.64-1.77-2.24Z"/>
    <path class="cls-19" d="m345.52,302.5c4.48-9.94-4.03-18.39-4.03-18.39.45-11.43-12.1-14.91-12.1-14.91-3.14-6.46-13.44-6.46-13.44-6.46-19.27-9.94-26.89,10.36-26.43,10.24,2.7-.7,2.08,1.94,2.08,1.94.37-.02.89-.04,1.51,0,.74.04,2.09.13,3.56.75,1.2.5.98.73,1.79.99,1.74.57,2.3-.62,4.48-.5.45.03,2.38.14,4.03,1.49.53.43.76.77,1.34.99,1.05.39,2.13,0,2.91-.43.12-.46.49-1.69,1.57-2.55,1.16-.93,3.11-1.4,4.62-.16,1.37,1.12,1.88,3.22,1.2,5.08l.86.94c-2.29,1.88,7.22,8.55,7.22,8.55-.05,1.16,0,3.74,1.34,6.46,1.01,2.05,2.33,3.32,3.14,3.98-.25.59-.89,2.34-.45,4.47.66,3.2,3.21,4.59,3.55,4.77-.74,1.05-2.04,3.22-2.59,6.31.26.2.51.42.73.67,1,.34,1.91.8,2.67,1.38.77-.1,1.74.11,2.46.32.53.15,1.02.38,1.49.65.3-.21.61-.42.89-.63.3-.26.61-.52.91-.78.08-.13.14-.26.24-.39.08-.11.16-.21.24-.32.11-.5.29-1.01.58-1.52.23-.41.48-.8.74-1.18.06-.78.34-1.55.87-2.24.1-.13.2-.26.32-.39.35-.85.97-1.65,1.91-2.27.51-.34,1.02-.68,1.53-1.02-.64-3.27-1.74-5.83-1.74-5.83Z"/>
    <path class="cls-19" d="m320.63,354.21c-2.41,1.96-11.49-.46-11.49-.46,7.58,7.51,13.1,6.53,16.78,3.54-1.87-.5-3.67-1.65-5.29-3.08Z"/>
    <path class="cls-19" d="m315.95,262.74s7.97,1.78,3.54,18.78"/>
    <path class="cls-19" d="m329.39,269.2s6.27,5.47-2.69,20.88"/>
    <path class="cls-19" d="m341.49,284.11s2.69,7.46-10.31,16.4"/>
    <path class="cls-19" d="m345.52,302.5s2.63,5.57-11.23,7.26"/>
    <path class="cls-19" d="m327.48,315.42c1.02-.39,2-.37,2.89-.07-1.05-12.67-6.47-23.03-6.47-23.03,0,0-3.56-2.39-5.06-2.83-.24-.07-.62-.13-.54-.04,6.38,7.17,8.68,16.85,9.14,25.96.01,0,.03,0,.04,0Z"/>
    <ellipse class="cls-19" cx="294.21" cy="277.16" rx=".99" ry="2.92" transform="translate(-27.03 522.48) rotate(-80.66)"/>
  </g>
  <g id="Eyes-Pen">
    <path class="cls-18" d="m350,154.5c-.55,7.51-.71,11.35-3,14-2.68,3.1-6.49,3.74-14,5-7.29,1.23-17.15,2.7-26-2-2.97-1.57-4.34-3.13-5-4-2.87-3.75-2.83-8.21-3-12-.13-2.89-.27-6.12,1-9,4.2-9.53,20.81-9.95,23-10,1.18-.03,11.77-.09,22,7,2.14,1.48,3.22,2.56,4,4,1.15,2.14,1.2,4.29,1,7Z"/>
    <path class="cls-18" d="m343.8,170.79s-13.48,5.17-27.64,3.94c0,0-9.16-1.23-10.16-2.23"/>
    <path class="cls-18" d="m350,145.5s-23-21-53-3l1,1s8-5,10-5,21-7,42,7Z"/>
    <path class="cls-18" d="m298,138.5s29-11.83,52,6.58c0,0-21.4-16.28-50.76-5.63-.25.09-1.08.4-1.24.46v-1.42Z"/>
    <path class="cls-18" d="m381,154.38c.55,7.51.71,11.35,3,14,2.68,3.1,6.49,3.74,14,5,7.29,1.23,17.15,2.7,26-2,2.97-1.57,4.34-3.13,5-4,2.87-3.75,2.83-8.21,3-12,.13-2.89.27-6.12-1-9-4.2-9.53-20.81-9.95-23-10-1.18-.03-11.77-.09-22,7-2.14,1.48-3.22,2.56-4,4-1.15,2.14-1.2,4.29-1,7Z"/>
    <path class="cls-18" d="m387.2,170.67s13.48,5.17,27.64,3.94c0,0,9.16-1.23,10.16-2.23"/>
    <path class="cls-18" d="m381,145.38s23-21,53-3l-1,1s-8-5-10-5-21-7-42,7Z"/>
    <path class="cls-18" d="m433,138.38s-29-11.83-52,6.58c0,0,21.4-16.28,50.76-5.63.25.09,1.08.4,1.24.46v-1.42Z"/>
  </g>
  <g id="Mouth-Pen-1">
    <path class="cls-18" d="m348.5,192.86s1.5,3.64,5.5,4.64,10.22,4,23.11,2,12.65-8.15,12.65-8.15"/>
  </g>
</svg>